<svg xmlns="http://www.w3.org/2000/svg" viewBox="0 0 45 45"><defs><style>.a{fill:#fff;}</style></defs><path class="a" d="M38.26,38.539a22.306,22.306,0,0,0-35.1,26.91L0,77l11.823-3.1A22.231,22.231,0,0,0,22.48,76.608h.01A22.158,22.158,0,0,0,38.26,38.539ZM22.49,72.852a18.5,18.5,0,0,1-9.442-2.581l-.673-.4L5.364,71.706l1.868-6.84-.442-.7a18.57,18.57,0,1,1,34.443-9.854A18.741,18.741,0,0,1,22.49,72.852ZM32.655,58.97c-.552-.281-3.295-1.627-3.807-1.808s-.884-.281-1.256.281-1.436,1.808-1.768,2.19-.653.422-1.205.141c-3.275-1.637-5.424-2.923-7.584-6.629-.573-.984.573-.914,1.637-3.044a1.033,1.033,0,0,0-.05-.974c-.141-.281-1.256-3.023-1.718-4.138-.452-1.085-.914-.934-1.256-.954-.321-.02-.693-.02-1.065-.02a2.064,2.064,0,0,0-1.487.693,6.261,6.261,0,0,0-1.949,4.651c0,2.742,2,5.394,2.27,5.766s3.927,6,9.522,8.417c3.536,1.527,4.922,1.657,6.69,1.4,1.075-.161,3.295-1.346,3.757-2.652a4.66,4.66,0,0,0,.321-2.652C33.579,59.382,33.208,59.241,32.655,58.97Z" transform="translate(0 -32)"/></svg>